<svg width="129" height="40" viewBox="0 0 129 40" fill="none" xmlns="http://www.w3.org/2000/svg">
<path d="M43.6853 20.6404V11.1858H45.398V15.5299H45.5135L49.202 11.1858H51.2933L47.637 15.4284L51.3256 20.6404H49.2667L46.446 16.5871L45.398 17.8243V20.6404H43.6853ZM52.9275 23.2995C52.6998 23.2995 52.489 23.281 52.2951 23.2441C52.1043 23.2102 51.9519 23.1702 51.838 23.124L52.2258 21.8222C52.469 21.893 52.6859 21.9268 52.8767 21.9238C53.0676 21.9207 53.2353 21.8607 53.3799 21.7437C53.5277 21.6298 53.6523 21.439 53.7539 21.1713L53.897 20.7881L51.3256 13.5495H53.0983L54.7326 18.9046H54.8064L56.4453 13.5495H58.2226L55.3835 21.499C55.2512 21.8745 55.0757 22.1961 54.8572 22.4639C54.6387 22.7347 54.3709 22.9409 54.0539 23.0825C53.74 23.2271 53.3646 23.2995 52.9275 23.2995ZM63.8986 17.6581V13.5495H65.5697V20.6404H63.9494V19.3801H63.8755C63.7155 19.7771 63.4523 20.1018 63.0861 20.3542C62.7229 20.6065 62.2751 20.7327 61.7427 20.7327C61.278 20.7327 60.8671 20.6296 60.5101 20.4234C60.1562 20.2141 59.8792 19.911 59.6791 19.514C59.4791 19.1139 59.3791 18.6307 59.3791 18.0644V13.5495H61.0502V17.8059C61.0502 18.2552 61.1733 18.6122 61.4195 18.8769C61.6657 19.1416 61.9889 19.2739 62.389 19.2739C62.6352 19.2739 62.8737 19.2139 63.1045 19.0939C63.3354 18.9738 63.5246 18.7953 63.6724 18.5583C63.8232 18.3183 63.8986 18.0182 63.8986 17.6581ZM64.7065 11.1858V12.2061H60.2654V11.1858H64.7065ZM68.8117 18.4152L68.8071 16.3978H69.0748L71.6231 13.5495H73.5759L70.4413 17.0395H70.095L68.8117 18.4152ZM67.2882 20.6404V11.1858H68.9594V20.6404H67.2882ZM71.7385 20.6404L69.4303 17.4135L70.5567 16.2363L73.7374 20.6404H71.7385ZM76.7301 20.7835C76.2807 20.7835 75.876 20.7035 75.5159 20.5434C75.1589 20.3803 74.8758 20.1403 74.6665 19.8233C74.4603 19.5063 74.3572 19.1154 74.3572 18.6507C74.3572 18.2506 74.4311 17.9197 74.5788 17.6581C74.7265 17.3965 74.9281 17.1873 75.1836 17.0303C75.439 16.8733 75.7268 16.7548 76.0468 16.6748C76.37 16.5917 76.7039 16.5317 77.0486 16.4948C77.4641 16.4517 77.8011 16.4132 78.0596 16.3794C78.3181 16.3424 78.5059 16.287 78.6228 16.2132C78.7429 16.1362 78.8029 16.0177 78.8029 15.8577V15.83C78.8029 15.4822 78.6998 15.2129 78.4936 15.0221C78.2874 14.8313 77.9904 14.7359 77.6026 14.7359C77.1933 14.7359 76.8686 14.8252 76.6285 15.0037C76.3915 15.1822 76.2315 15.393 76.1484 15.6361L74.588 15.4145C74.7111 14.9837 74.9143 14.6236 75.1974 14.3343C75.4806 14.0419 75.8268 13.8234 76.2361 13.6787C76.6454 13.531 77.0979 13.4571 77.5934 13.4571C77.935 13.4571 78.2751 13.4972 78.6136 13.5772C78.9521 13.6572 79.2614 13.7895 79.5415 13.9742C79.8216 14.1558 80.0463 14.4035 80.2155 14.7174C80.3879 15.0314 80.474 15.4238 80.474 15.8946V20.6404H78.8675V19.6663H78.8121C78.7105 19.8633 78.5674 20.0479 78.3828 20.2203C78.2012 20.3896 77.9719 20.5265 77.6949 20.6311C77.421 20.7327 77.0994 20.7835 76.7301 20.7835ZM77.164 19.5555C77.4995 19.5555 77.7903 19.4893 78.0365 19.357C78.2828 19.2216 78.472 19.0431 78.6044 18.8215C78.7398 18.5999 78.8075 18.3583 78.8075 18.0967V17.2611C78.7552 17.3042 78.6659 17.3442 78.5397 17.3811C78.4166 17.4181 78.2781 17.4504 78.1243 17.4781C77.9704 17.5058 77.818 17.5304 77.6672 17.552C77.5164 17.5735 77.3856 17.592 77.2748 17.6074C77.0255 17.6412 76.8024 17.6966 76.6054 17.7735C76.4085 17.8505 76.253 17.9582 76.1392 18.0967C76.0253 18.2321 75.9684 18.4075 75.9684 18.623C75.9684 18.9307 76.0807 19.1631 76.3054 19.3201C76.53 19.477 76.8163 19.5555 77.164 19.5555ZM87.0502 16.4856V20.6404H85.3791V13.5495H86.9764V14.7544H87.0594C87.2226 14.3574 87.4826 14.0419 87.8396 13.808C88.1997 13.5741 88.6444 13.4571 89.1738 13.4571C89.6631 13.4571 90.0894 13.5618 90.4526 13.7711C90.8188 13.9803 91.1019 14.2835 91.302 14.6805C91.5051 15.0775 91.6051 15.5592 91.6021 16.1255V20.6404H89.9309V16.384C89.9309 15.91 89.8078 15.5392 89.5616 15.2714C89.3184 15.0037 88.9814 14.8698 88.5506 14.8698C88.2582 14.8698 87.9981 14.9344 87.7704 15.0637C87.5457 15.1899 87.3688 15.373 87.2395 15.613C87.1133 15.8531 87.0502 16.1439 87.0502 16.4856ZM96.394 20.7789C95.7015 20.7789 95.1014 20.6265 94.5935 20.3218C94.0857 20.0172 93.6918 19.5909 93.4117 19.0431C93.1347 18.4953 92.9962 17.8551 92.9962 17.1226C92.9962 16.3901 93.1347 15.7485 93.4117 15.1976C93.6918 14.6467 94.0857 14.2189 94.5935 13.9142C95.1014 13.6095 95.7015 13.4571 96.394 13.4571C97.0864 13.4571 97.6866 13.6095 98.1944 13.9142C98.7022 14.2189 99.0946 14.6467 99.3716 15.1976C99.6517 15.7485 99.7917 16.3901 99.7917 17.1226C99.7917 17.8551 99.6517 18.4953 99.3716 19.0431C99.0946 19.5909 98.7022 20.0172 98.1944 20.3218C97.6866 20.6265 97.0864 20.7789 96.394 20.7789ZM96.4032 19.4401C96.7787 19.4401 97.0926 19.337 97.345 19.1308C97.5973 18.9215 97.7851 18.6414 97.9082 18.2906C98.0344 17.9397 98.0974 17.5489 98.0974 17.118C98.0974 16.6841 98.0344 16.2917 97.9082 15.9408C97.7851 15.5869 97.5973 15.3053 97.345 15.096C97.0926 14.8867 96.7787 14.7821 96.4032 14.7821C96.0185 14.7821 95.6984 14.8867 95.443 15.096C95.1906 15.3053 95.0013 15.5869 94.8751 15.9408C94.752 16.2917 94.6905 16.6841 94.6905 17.118C94.6905 17.5489 94.752 17.9397 94.8751 18.2906C95.0013 18.6414 95.1906 18.9215 95.443 19.1308C95.6984 19.337 96.0185 19.4401 96.4032 19.4401ZM43.6115 36.6404V29.5495H45.2319V30.7313H45.3057C45.435 30.322 45.6566 30.0065 45.9705 29.7849C46.2875 29.5602 46.6491 29.4479 47.0554 29.4479C47.1477 29.4479 47.2508 29.4525 47.3647 29.4618C47.4816 29.4679 47.5786 29.4787 47.6555 29.4941V31.0314C47.5847 31.0067 47.4724 30.9852 47.3185 30.9667C47.1677 30.9452 47.0215 30.9344 46.8799 30.9344C46.5753 30.9344 46.3013 31.0006 46.0582 31.1329C45.8181 31.2622 45.6289 31.4422 45.4904 31.6731C45.3519 31.9039 45.2826 32.1701 45.2826 32.4717V36.6404H43.6115ZM48.7658 36.6404V29.5495H50.4369V36.6404H48.7658ZM49.606 28.5431C49.3413 28.5431 49.1135 28.4554 48.9227 28.2799C48.7319 28.1014 48.6365 27.8875 48.6365 27.6382C48.6365 27.3859 48.7319 27.172 48.9227 26.9966C49.1135 26.8181 49.3413 26.7288 49.606 26.7288C49.8737 26.7288 50.1015 26.8181 50.2892 26.9966C50.48 27.172 50.5754 27.3859 50.5754 27.6382C50.5754 27.8875 50.48 28.1014 50.2892 28.2799C50.1015 28.4554 49.8737 28.5431 49.606 28.5431ZM52.1554 36.6404V29.5495H53.7758V30.7313H53.8497C53.9789 30.322 54.2005 30.0065 54.5144 29.7849C54.8314 29.5602 55.1931 29.4479 55.5993 29.4479C55.6916 29.4479 55.7947 29.4525 55.9086 29.4618C56.0256 29.4679 56.1225 29.4787 56.1995 29.4941V31.0314C56.1287 31.0067 56.0163 30.9852 55.8624 30.9667C55.7116 30.9452 55.5655 30.9344 55.4239 30.9344C55.1192 30.9344 54.8453 31.0006 54.6022 31.1329C54.3621 31.2622 54.1728 31.4422 54.0343 31.6731C53.8958 31.9039 53.8266 32.1701 53.8266 32.4717V36.6404H52.1554ZM59.2232 36.7835C58.7739 36.7835 58.3692 36.7035 58.0091 36.5434C57.6521 36.3803 57.369 36.1403 57.1597 35.8233C56.9535 35.5063 56.8504 35.1154 56.8504 34.6507C56.8504 34.2506 56.9242 33.9197 57.072 33.6581C57.2197 33.3965 57.4213 33.1873 57.6767 33.0303C57.9322 32.8733 58.2199 32.7548 58.54 32.6748C58.8632 32.5917 59.1971 32.5317 59.5418 32.4948C59.9573 32.4517 60.2943 32.4132 60.5528 32.3794C60.8113 32.3424 60.999 32.287 61.116 32.2132C61.236 32.1362 61.296 32.0177 61.296 31.8577V31.83C61.296 31.4822 61.1929 31.2129 60.9867 31.0221C60.7805 30.8313 60.4835 30.7359 60.0958 30.7359C59.6864 30.7359 59.3617 30.8252 59.1217 31.0037C58.8847 31.1822 58.7247 31.393 58.6416 31.6361L57.0812 31.4145C57.2043 30.9837 57.4074 30.6236 57.6906 30.3343C57.9737 30.0419 58.32 29.8234 58.7293 29.6787C59.1386 29.531 59.591 29.4571 60.0865 29.4571C60.4281 29.4571 60.7682 29.4972 61.1068 29.5772C61.4453 29.6572 61.7546 29.7895 62.0347 29.9742C62.3147 30.1558 62.5394 30.4035 62.7087 30.7174C62.881 31.0314 62.9672 31.4238 62.9672 31.8946V36.6404H61.3607V35.6663H61.3053C61.2037 35.8633 61.0606 36.0479 60.8759 36.2203C60.6944 36.3896 60.4651 36.5265 60.1881 36.6311C59.9142 36.7327 59.5926 36.7835 59.2232 36.7835ZM59.6572 35.5555C59.9927 35.5555 60.2835 35.4893 60.5297 35.357C60.7759 35.2216 60.9652 35.0431 61.0975 34.8215C61.233 34.5999 61.3007 34.3583 61.3007 34.0967V33.2611C61.2483 33.3042 61.1591 33.3442 61.0329 33.3811C60.9098 33.4181 60.7713 33.4504 60.6174 33.4781C60.4635 33.5058 60.3112 33.5304 60.1604 33.552C60.0096 33.5735 59.8788 33.592 59.768 33.6074C59.5187 33.6412 59.2956 33.6966 59.0986 33.7735C58.9016 33.8505 58.7462 33.9582 58.6323 34.0967C58.5185 34.2321 58.4615 34.4075 58.4615 34.623C58.4615 34.9307 58.5739 35.1631 58.7985 35.3201C59.0232 35.477 59.3094 35.5555 59.6572 35.5555ZM66.171 34.4152L66.1664 32.3978H66.4342L68.9825 29.5495H70.9352L67.8007 33.0395H67.4544L66.171 34.4152ZM64.6476 36.6404V27.1858H66.3188V36.6404H64.6476ZM69.0979 36.6404L66.7897 33.4135L67.9161 32.2363L71.0968 36.6404H69.0979ZM76.5685 33.6581V29.5495H78.2397V36.6404H76.6193V35.3801H76.5454C76.3854 35.7771 76.1222 36.1018 75.756 36.3542C75.3928 36.6065 74.945 36.7327 74.4126 36.7327C73.9479 36.7327 73.537 36.6296 73.18 36.4234C72.8261 36.2141 72.5491 35.911 72.349 35.514C72.149 35.1139 72.049 34.6307 72.049 34.0644V29.5495H73.7201V33.8059C73.7201 34.2552 73.8432 34.6122 74.0895 34.8769C74.3357 35.1416 74.6588 35.2739 75.0589 35.2739C75.3051 35.2739 75.5436 35.2139 75.7745 35.0939C76.0053 34.9738 76.1946 34.7953 76.3423 34.5583C76.4931 34.3183 76.5685 34.0182 76.5685 33.6581ZM79.8658 36.6404V35.5786L83.5221 30.9944V30.9344H79.9859V29.5495H85.5672V30.6897L82.0863 35.1954V35.2554H85.6872V36.6404H79.8658ZM90.194 36.7789C89.4831 36.7789 88.8691 36.6311 88.3521 36.3357C87.8381 36.0372 87.4426 35.6155 87.1656 35.0708C86.8886 34.523 86.7501 33.8782 86.7501 33.1365C86.7501 32.4071 86.8886 31.7669 87.1656 31.216C87.4457 30.662 87.8366 30.2312 88.3382 29.9234C88.8399 29.6126 89.4292 29.4571 90.1063 29.4571C90.5433 29.4571 90.9558 29.5279 91.3435 29.6695C91.7344 29.808 92.0791 30.0234 92.3776 30.3158C92.6792 30.6082 92.9162 30.9806 93.0886 31.433C93.2609 31.8823 93.3471 32.4178 93.3471 33.0395V33.552H87.5349V32.4255H91.7452C91.7421 32.1055 91.6728 31.8208 91.5374 31.5715C91.402 31.3191 91.2127 31.1206 90.9696 30.976C90.7295 30.8313 90.4495 30.759 90.1294 30.759C89.7878 30.759 89.4877 30.8421 89.2292 31.0083C88.9707 31.1714 88.7691 31.3868 88.6244 31.6546C88.4829 31.9193 88.4105 32.2101 88.4075 32.5271V33.5104C88.4075 33.9228 88.4829 34.2767 88.6337 34.5722C88.7845 34.8646 88.9953 35.0892 89.2661 35.2462C89.537 35.4001 89.854 35.477 90.2171 35.477C90.4603 35.477 90.6803 35.4432 90.8773 35.3755C91.0742 35.3047 91.2451 35.2016 91.3897 35.0662C91.5344 34.9307 91.6436 34.763 91.7175 34.563L93.2778 34.7384C93.1794 35.1508 92.9916 35.5109 92.7146 35.8186C92.4407 36.1233 92.0899 36.3603 91.6621 36.5296C91.2343 36.6958 90.7449 36.7789 90.194 36.7789ZM92.2807 27.1858V28.2061H87.8396V27.1858H92.2807ZM100.365 31.4238L98.8419 31.59C98.7988 31.4361 98.7234 31.2914 98.6156 31.156C98.511 31.0206 98.3694 30.9113 98.1909 30.8282C98.0124 30.7451 97.7939 30.7036 97.5354 30.7036C97.1876 30.7036 96.8952 30.779 96.6583 30.9298C96.4244 31.0806 96.3089 31.276 96.312 31.5161C96.3089 31.7223 96.3843 31.89 96.5382 32.0193C96.6952 32.1485 96.9537 32.2547 97.3138 32.3378L98.5233 32.5963C99.1942 32.741 99.6928 32.9703 100.019 33.2842C100.348 33.5981 100.515 34.009 100.518 34.5168C100.515 34.9631 100.384 35.357 100.125 35.6986C99.8698 36.0372 99.5143 36.3018 99.0588 36.4927C98.6033 36.6835 98.0801 36.7789 97.4892 36.7789C96.6213 36.7789 95.9227 36.5973 95.3933 36.2341C94.864 35.8679 94.5485 35.3585 94.447 34.7061L96.0766 34.5491C96.1504 34.8692 96.3074 35.1108 96.5475 35.2739C96.7875 35.437 97.0999 35.5186 97.4846 35.5186C97.8816 35.5186 98.2002 35.437 98.4402 35.2739C98.6834 35.1108 98.8049 34.9092 98.8049 34.6691C98.8049 34.466 98.7264 34.2983 98.5695 34.1659C98.4156 34.0336 98.1755 33.932 97.8493 33.8613L96.6398 33.6074C95.9596 33.4658 95.4564 33.2273 95.1302 32.8918C94.804 32.5533 94.6424 32.1255 94.6455 31.6084C94.6424 31.1714 94.7609 30.7928 95.0009 30.4728C95.2441 30.1496 95.5811 29.9003 96.012 29.7249C96.4459 29.5464 96.946 29.4571 97.5123 29.4571C98.3433 29.4571 98.9973 29.6341 99.4743 29.988C99.9544 30.342 100.251 30.8205 100.365 31.4238ZM103.567 32.4856V36.6404H101.896V27.1858H103.53V30.7544H103.613C103.779 30.3543 104.036 30.0388 104.384 29.808C104.735 29.5741 105.181 29.4571 105.723 29.4571C106.215 29.4571 106.644 29.5602 107.011 29.7664C107.377 29.9726 107.66 30.2743 107.86 30.6713C108.063 31.0683 108.165 31.553 108.165 32.1255V36.6404H106.494V32.384C106.494 31.907 106.371 31.5361 106.124 31.2714C105.881 31.0037 105.54 30.8698 105.099 30.8698C104.804 30.8698 104.539 30.9344 104.305 31.0637C104.075 31.1899 103.893 31.373 103.761 31.613C103.631 31.8531 103.567 32.1439 103.567 32.4856ZM112.961 36.7789C112.269 36.7789 111.669 36.6265 111.161 36.3218C110.653 36.0172 110.259 35.5909 109.979 35.0431C109.702 34.4953 109.564 33.8551 109.564 33.1226C109.564 32.3901 109.702 31.7485 109.979 31.1976C110.259 30.6467 110.653 30.2189 111.161 29.9142C111.669 29.6095 112.269 29.4571 112.961 29.4571C113.654 29.4571 114.254 29.6095 114.762 29.9142C115.27 30.2189 115.662 30.6467 115.939 31.1976C116.219 31.7485 116.359 32.3901 116.359 33.1226C116.359 33.8551 116.219 34.4953 115.939 35.0431C115.662 35.5909 115.27 36.0172 114.762 36.3218C114.254 36.6265 113.654 36.7789 112.961 36.7789ZM112.971 35.4401C113.346 35.4401 113.66 35.337 113.912 35.1308C114.165 34.9215 114.352 34.6414 114.476 34.2906C114.602 33.9397 114.665 33.5489 114.665 33.118C114.665 32.6841 114.602 32.2917 114.476 31.9408C114.352 31.5869 114.165 31.3053 113.912 31.096C113.66 30.8867 113.346 30.7821 112.971 30.7821C112.586 30.7821 112.266 30.8867 112.01 31.096C111.758 31.3053 111.569 31.5869 111.443 31.9408C111.319 32.2917 111.258 32.6841 111.258 33.118C111.258 33.5489 111.319 33.9397 111.443 34.2906C111.569 34.6414 111.758 34.9215 112.01 35.1308C112.266 35.337 112.586 35.4401 112.971 35.4401ZM119.449 32.4856V36.6404H117.777V29.5495H119.375V30.7544H119.458C119.621 30.3574 119.881 30.0419 120.238 29.808C120.598 29.5741 121.043 29.4571 121.572 29.4571C122.062 29.4571 122.488 29.5618 122.851 29.7711C123.217 29.9803 123.5 30.2835 123.7 30.6805C123.904 31.0775 124.004 31.5592 124 32.1255V36.6404H122.329V32.384C122.329 31.91 122.206 31.5392 121.96 31.2714C121.717 31.0037 121.38 30.8698 120.949 30.8698C120.657 30.8698 120.397 30.9344 120.169 31.0637C119.944 31.1899 119.767 31.373 119.638 31.613C119.512 31.8531 119.449 32.1439 119.449 32.4856Z" fill="#3252DF"/>
<rect y="5.39331" width="37.7528" height="34.6067" rx="4" fill="#3252DF"/>
<rect x="9.25" y="0.25" width="3.09551" height="9.83708" rx="1.54775" fill="white" stroke="#3252DF" stroke-width="0.5"/>
<rect x="17.8455" y="0.25" width="3.09551" height="9.83708" rx="1.54775" fill="white" stroke="#3252DF" stroke-width="0.5"/>
<rect x="26.441" y="0.25" width="3.09551" height="9.83708" rx="1.54775" fill="white" stroke="#3252DF" stroke-width="0.5"/>
<path d="M24.1906 17.661L21.3909 19.2774L12.3881 16.0763C10.8661 16.4573 11.2697 17.5515 11.6617 18.051L16.9581 21.8367L12.992 24.1265L10.6492 23.3016C9.47163 22.9861 9.47068 23.7747 9.61741 24.2084L12.9849 30.041C13.4159 30.7876 14.1217 30.2141 14.4208 29.8341L14.8777 27.3928L18.8439 25.1029L19.4742 31.5826C20.2285 32.8891 21.3263 32.2761 21.7808 31.8062L23.2767 22.5437L26.0763 20.9273C26.5758 20.5352 27.4131 19.4711 26.7666 18.3513C26.12 17.2314 24.7798 17.4245 24.1906 17.661Z" fill="white"/>
</svg>
