<svg width="165" height="37" viewBox="0 0 165 37" fill="none" xmlns="http://www.w3.org/2000/svg">
<path d="M1.3125 25C1.375 24.6484 1.41016 24.1484 1.41797 23.5C1.43359 22.8516 1.44141 22.0938 1.44141 21.2266V15.9531C1.44141 15.0859 1.43359 14.3281 1.41797 13.6797C1.41016 13.0234 1.375 12.5195 1.3125 12.168H3.94922V17.4414H9.14062V12.168H11.7773C11.707 12.5195 11.6641 13.0234 11.6484 13.6797C11.6406 14.3281 11.6367 15.0859 11.6367 15.9531V21.2266C11.6367 22.0938 11.6406 22.8516 11.6484 23.5C11.6641 24.1484 11.707 24.6484 11.7773 25C11.7773 25 11.6445 25 11.3789 25C11.1133 25 10.8047 25 10.4531 25C10.1094 25 9.80469 25 9.53906 25C9.27344 25 9.14062 25 9.14062 25V19.4219H3.94922V25C3.94922 25 3.81641 25 3.55078 25C3.28516 25 2.97656 25 2.625 25C2.28125 25 1.97656 25 1.71094 25C1.44531 25 1.3125 25 1.3125 25ZM18.3164 25.2109C17.082 25.2109 16.0703 24.8125 15.2812 24.0156C14.4922 23.2109 14.0977 22.0547 14.0977 20.5469C14.0977 19.5391 14.2969 18.6875 14.6953 17.9922C15.1016 17.2969 15.6367 16.7695 16.3008 16.4102C16.9727 16.043 17.7031 15.8594 18.4922 15.8594C19.7344 15.8594 20.7461 16.2617 21.5273 17.0664C22.3164 17.8711 22.7109 19.0312 22.7109 20.5469C22.7109 21.5547 22.5078 22.4062 22.1016 23.1016C21.7031 23.7891 21.1719 24.3125 20.5078 24.6719C19.8438 25.0312 19.1133 25.2109 18.3164 25.2109ZM18.4102 23.2422C18.9727 23.2422 19.418 23.0039 19.7461 22.5273C20.082 22.043 20.25 21.3828 20.25 20.5469C20.25 19.7031 20.0938 19.043 19.7812 18.5664C19.4688 18.082 19.0117 17.8398 18.4102 17.8398C17.8398 17.8398 17.3867 18.082 17.0508 18.5664C16.7227 19.043 16.5586 19.7031 16.5586 20.5469C16.5586 21.3828 16.7148 22.043 17.0273 22.5273C17.3477 23.0039 17.8086 23.2422 18.4102 23.2422ZM28.4531 25.2109C27.8984 25.2109 27.3906 25.1367 26.9297 24.9883C26.4766 24.8398 26.1133 24.5781 25.8398 24.2031C25.5742 23.8281 25.4414 23.3047 25.4414 22.6328V13.3984H27.9023V20.9453C27.9023 21.6094 27.9375 22.1016 28.0078 22.4219C28.0859 22.7422 28.207 22.9531 28.3711 23.0547C28.5352 23.1484 28.75 23.1953 29.0156 23.1953C29.2422 23.1953 29.4922 23.1406 29.7656 23.0312C30.0469 22.9141 30.3633 22.75 30.7148 22.5391V24.5078C30.293 24.7656 29.8906 24.9453 29.5078 25.0469C29.125 25.1562 28.7734 25.2109 28.4531 25.2109ZM23.7656 17.9336V16.1758H30.5742V17.9336H23.7656ZM36.457 25.2109C35.6836 25.2109 34.9648 25.0391 34.3008 24.6953C33.6367 24.3516 33.0977 23.8398 32.6836 23.1602C32.2773 22.4805 32.0742 21.6445 32.0742 20.6523C32.0742 19.1992 32.4648 18.0391 33.2461 17.1719C34.0352 16.2969 35.1055 15.8594 36.457 15.8594C37.4414 15.8594 38.1992 16.082 38.7305 16.5273C39.2617 16.9648 39.6289 17.5234 39.832 18.2031C40.043 18.8828 40.1484 19.5898 40.1484 20.3242C40.1484 20.4102 40.1484 20.5312 40.1484 20.6875C40.1562 20.8438 40.1602 20.9648 40.1602 21.0508H33.4102V19.4688H37.9219C37.9219 18.8516 37.7852 18.4062 37.5117 18.1328C37.2461 17.8516 36.8555 17.7109 36.3398 17.7109C35.707 17.7109 35.2344 17.9297 34.9219 18.3672C34.6172 18.8047 34.4648 19.5391 34.4648 20.5703C34.4648 21.5 34.6523 22.1797 35.0273 22.6094C35.4023 23.0312 35.9531 23.2422 36.6797 23.2422C37.2578 23.2422 37.8203 23.1758 38.3672 23.043C38.9219 22.9102 39.4727 22.6836 40.0195 22.3633L40.207 24.3438C39.5742 24.6641 38.9609 24.8867 38.3672 25.0117C37.7812 25.1445 37.1445 25.2109 36.457 25.2109ZM42.6211 25V15.0742C42.6211 14.2148 42.6055 13.4375 42.5742 12.7422C42.543 12.0469 42.5 11.4453 42.4453 10.9375H45.082V20.8281C45.082 21.2031 45.0859 21.6602 45.0938 22.1992C45.1094 22.7305 45.1289 23.25 45.1523 23.7578C45.1836 24.2656 45.2188 24.6797 45.2578 25H42.6211ZM69.3516 25C69.4141 24.6484 69.4492 24.1406 69.457 23.4766C69.4727 22.8125 69.4805 22.0469 69.4805 21.1797V16.2109C69.4805 15.3516 69.4727 14.5508 69.457 13.8086C69.4492 13.0664 69.4141 12.5195 69.3516 12.168C69.3516 12.168 69.5742 12.1602 70.0195 12.1445C70.4727 12.1289 71.0352 12.1172 71.707 12.1094C72.3867 12.0938 73.0664 12.0859 73.7461 12.0859C75.1133 12.0859 76.2227 12.3984 77.0742 13.0234C77.9336 13.6484 78.3633 14.5938 78.3633 15.8594C78.3633 16.7891 78.1328 17.5508 77.6719 18.1445C77.2188 18.7305 76.6211 19.1641 75.8789 19.4453C75.1445 19.7266 74.3594 19.8672 73.5234 19.8672H71.9883V21.1797C71.9883 22.0469 71.9961 22.8164 72.0117 23.4883C72.0273 24.1523 72.0625 24.6562 72.1172 25H69.3516ZM76.6055 25L72.9258 19.4219L75.3047 18.9648C75.3047 18.9648 75.3984 19.0977 75.5859 19.3633C75.7734 19.6211 76.0156 19.9609 76.3125 20.3828C76.6172 20.8047 76.9453 21.2578 77.2969 21.7422C77.6484 22.2266 77.9883 22.6992 78.3164 23.1602C78.6523 23.6133 78.9453 24.0078 79.1953 24.3438C79.4531 24.6719 79.6289 24.8906 79.7227 25H76.6055ZM71.9883 17.9688H73.3477C74.1211 17.9688 74.7305 17.8203 75.1758 17.5234C75.6289 17.2188 75.8555 16.6797 75.8555 15.9062C75.8555 15.2422 75.6484 14.7695 75.2344 14.4883C74.8203 14.207 74.2227 14.0664 73.4414 14.0664C73.0977 14.0664 72.8281 14.0703 72.6328 14.0781C72.4375 14.0781 72.2227 14.0859 71.9883 14.1016V17.9688ZM85.3477 25.2109C84.5742 25.2109 83.8555 25.0391 83.1914 24.6953C82.5273 24.3516 81.9883 23.8398 81.5742 23.1602C81.168 22.4805 80.9648 21.6445 80.9648 20.6523C80.9648 19.1992 81.3555 18.0391 82.1367 17.1719C82.9258 16.2969 83.9961 15.8594 85.3477 15.8594C86.332 15.8594 87.0898 16.082 87.6211 16.5273C88.1523 16.9648 88.5195 17.5234 88.7227 18.2031C88.9336 18.8828 89.0391 19.5898 89.0391 20.3242C89.0391 20.4102 89.0391 20.5312 89.0391 20.6875C89.0469 20.8438 89.0508 20.9648 89.0508 21.0508H82.3008V19.4688H86.8125C86.8125 18.8516 86.6758 18.4062 86.4023 18.1328C86.1367 17.8516 85.7461 17.7109 85.2305 17.7109C84.5977 17.7109 84.125 17.9297 83.8125 18.3672C83.5078 18.8047 83.3555 19.5391 83.3555 20.5703C83.3555 21.5 83.543 22.1797 83.918 22.6094C84.293 23.0312 84.8438 23.2422 85.5703 23.2422C86.1484 23.2422 86.7109 23.1758 87.2578 23.043C87.8125 22.9102 88.3633 22.6836 88.9102 22.3633L89.0977 24.3438C88.4648 24.6641 87.8516 24.8867 87.2578 25.0117C86.6719 25.1445 86.0352 25.2109 85.3477 25.2109ZM91.5117 25V15.0742C91.5117 14.2148 91.4961 13.4375 91.4648 12.7422C91.4336 12.0469 91.3906 11.4453 91.3359 10.9375H93.9727V20.8281C93.9727 21.2031 93.9766 21.6602 93.9844 22.1992C94 22.7305 94.0195 23.25 94.043 23.7578C94.0742 24.2656 94.1094 24.6797 94.1484 25H91.5117ZM99.457 25.2109C98.8711 25.2109 98.3477 25.0859 97.8867 24.8359C97.4336 24.5859 97.0781 24.2539 96.8203 23.8398C96.5625 23.4258 96.4336 22.9805 96.4336 22.5039C96.4336 22.0508 96.5352 21.6016 96.7383 21.1562C96.9492 20.7031 97.3086 20.3125 97.8164 19.9844C98.332 19.6562 99.043 19.4492 99.9492 19.3633C100.152 19.3398 100.414 19.3164 100.734 19.293C101.062 19.2695 101.379 19.25 101.684 19.2344C101.988 19.2109 102.199 19.1992 102.316 19.1992V18.7656C102.316 18.4375 102.129 18.1992 101.754 18.0508C101.387 17.9023 100.871 17.8281 100.207 17.8281C99.7461 17.8281 99.2812 17.9219 98.8125 18.1094C98.3516 18.2969 97.8633 18.5703 97.3477 18.9297C97.3555 18.7344 97.3633 18.3984 97.3711 17.9219C97.3867 17.4375 97.4102 17.0156 97.4414 16.6562C97.9414 16.4609 98.4648 16.2812 99.0117 16.1172C99.5664 15.9453 100.215 15.8594 100.957 15.8594C102.105 15.8594 103.027 16.0977 103.723 16.5742C104.426 17.043 104.777 17.625 104.777 18.3203V21.7539C104.777 22.3867 104.832 22.9648 104.941 23.4883C105.059 24.0039 105.211 24.5078 105.398 25H103.02C102.965 24.875 102.895 24.707 102.809 24.4961C102.723 24.2852 102.648 24.0586 102.586 23.8164C102.094 24.3086 101.578 24.6641 101.039 24.8828C100.5 25.1016 99.9727 25.2109 99.457 25.2109ZM100.102 23.207C100.469 23.207 100.824 23.1289 101.168 22.9727C101.512 22.8164 101.895 22.4531 102.316 21.8828V20.8281C102.145 20.8359 101.852 20.8594 101.438 20.8984C101.023 20.9297 100.703 20.9609 100.477 20.9922C99.8672 21.0547 99.4492 21.1992 99.2227 21.4258C99.0039 21.6445 98.8945 21.8984 98.8945 22.1875C98.8945 22.4688 99.0039 22.7109 99.2227 22.9141C99.4492 23.1094 99.7422 23.207 100.102 23.207ZM113.309 25L108.434 18.4141C108.238 18.1406 108.059 17.8984 107.895 17.6875C107.73 17.4766 107.551 17.2461 107.355 16.9961C107.16 16.7461 106.902 16.4258 106.582 16.0352H109.488L114.316 22.6328C114.574 22.9844 114.832 23.3281 115.09 23.6641C115.355 23.9922 115.727 24.4375 116.203 25H113.309ZM106.5 25C106.984 24.375 107.348 23.9023 107.59 23.582C107.84 23.2539 108.074 22.9375 108.293 22.6328L110.531 19.5859L111.281 21.8477L109.172 25H106.5ZM112.078 21.4492L111.375 19.1289L113.391 16.0352H116.074C115.621 16.6289 115.27 17.0898 115.02 17.418C114.77 17.7461 114.52 18.0781 114.27 18.4141L112.078 21.4492ZM120.457 25.2109C119.871 25.2109 119.348 25.0859 118.887 24.8359C118.434 24.5859 118.078 24.2539 117.82 23.8398C117.562 23.4258 117.434 22.9805 117.434 22.5039C117.434 22.0508 117.535 21.6016 117.738 21.1562C117.949 20.7031 118.309 20.3125 118.816 19.9844C119.332 19.6562 120.043 19.4492 120.949 19.3633C121.152 19.3398 121.414 19.3164 121.734 19.293C122.062 19.2695 122.379 19.25 122.684 19.2344C122.988 19.2109 123.199 19.1992 123.316 19.1992V18.7656C123.316 18.4375 123.129 18.1992 122.754 18.0508C122.387 17.9023 121.871 17.8281 121.207 17.8281C120.746 17.8281 120.281 17.9219 119.812 18.1094C119.352 18.2969 118.863 18.5703 118.348 18.9297C118.355 18.7344 118.363 18.3984 118.371 17.9219C118.387 17.4375 118.41 17.0156 118.441 16.6562C118.941 16.4609 119.465 16.2812 120.012 16.1172C120.566 15.9453 121.215 15.8594 121.957 15.8594C123.105 15.8594 124.027 16.0977 124.723 16.5742C125.426 17.043 125.777 17.625 125.777 18.3203V21.7539C125.777 22.3867 125.832 22.9648 125.941 23.4883C126.059 24.0039 126.211 24.5078 126.398 25H124.02C123.965 24.875 123.895 24.707 123.809 24.4961C123.723 24.2852 123.648 24.0586 123.586 23.8164C123.094 24.3086 122.578 24.6641 122.039 24.8828C121.5 25.1016 120.973 25.2109 120.457 25.2109ZM121.102 23.207C121.469 23.207 121.824 23.1289 122.168 22.9727C122.512 22.8164 122.895 22.4531 123.316 21.8828V20.8281C123.145 20.8359 122.852 20.8594 122.438 20.8984C122.023 20.9297 121.703 20.9609 121.477 20.9922C120.867 21.0547 120.449 21.1992 120.223 21.4258C120.004 21.6445 119.895 21.8984 119.895 22.1875C119.895 22.4688 120.004 22.7109 120.223 22.9141C120.449 23.1094 120.742 23.207 121.102 23.207ZM132.094 25.2109C131.539 25.2109 131.031 25.1367 130.57 24.9883C130.117 24.8398 129.754 24.5781 129.48 24.2031C129.215 23.8281 129.082 23.3047 129.082 22.6328V13.3984H131.543V20.9453C131.543 21.6094 131.578 22.1016 131.648 22.4219C131.727 22.7422 131.848 22.9531 132.012 23.0547C132.176 23.1484 132.391 23.1953 132.656 23.1953C132.883 23.1953 133.133 23.1406 133.406 23.0312C133.688 22.9141 134.004 22.75 134.355 22.5391V24.5078C133.934 24.7656 133.531 24.9453 133.148 25.0469C132.766 25.1562 132.414 25.2109 132.094 25.2109ZM127.406 17.9336V16.1758H134.215V17.9336H127.406ZM136.512 25C136.512 25 136.512 24.8438 136.512 24.5312C136.512 24.2109 136.512 23.8047 136.512 23.3125C136.512 22.8203 136.512 22.3086 136.512 21.7773C136.512 21.2461 136.512 20.7695 136.512 20.3477C136.512 19.4883 136.504 18.6719 136.488 17.8984C136.473 17.1172 136.434 16.4961 136.371 16.0352H138.973C138.973 16.0352 138.973 16.1758 138.973 16.457C138.973 16.7305 138.973 17.082 138.973 17.5117C138.973 17.9336 138.973 18.375 138.973 18.8359C138.973 19.2891 138.973 19.6992 138.973 20.0664C138.973 20.4258 138.973 20.6797 138.973 20.8281C138.973 21.2031 138.977 21.6602 138.984 22.1992C139 22.7305 139.02 23.2539 139.043 23.7695C139.074 24.2773 139.109 24.6875 139.148 25H136.512ZM137.742 14.3711C137.297 14.3711 136.926 14.2305 136.629 13.9492C136.34 13.6602 136.195 13.2891 136.195 12.8359C136.195 12.3828 136.34 12.0117 136.629 11.7227C136.926 11.4336 137.297 11.2891 137.742 11.2891C138.188 11.2891 138.555 11.4336 138.844 11.7227C139.133 12.0117 139.277 12.3828 139.277 12.8359C139.277 13.2891 139.133 13.6602 138.844 13.9492C138.555 14.2305 138.188 14.3711 137.742 14.3711ZM145.559 25.2109C144.324 25.2109 143.312 24.8125 142.523 24.0156C141.734 23.2109 141.34 22.0547 141.34 20.5469C141.34 19.5391 141.539 18.6875 141.938 17.9922C142.344 17.2969 142.879 16.7695 143.543 16.4102C144.215 16.043 144.945 15.8594 145.734 15.8594C146.977 15.8594 147.988 16.2617 148.77 17.0664C149.559 17.8711 149.953 19.0312 149.953 20.5469C149.953 21.5547 149.75 22.4062 149.344 23.1016C148.945 23.7891 148.414 24.3125 147.75 24.6719C147.086 25.0312 146.355 25.2109 145.559 25.2109ZM145.652 23.2422C146.215 23.2422 146.66 23.0039 146.988 22.5273C147.324 22.043 147.492 21.3828 147.492 20.5469C147.492 19.7031 147.336 19.043 147.023 18.5664C146.711 18.082 146.254 17.8398 145.652 17.8398C145.082 17.8398 144.629 18.082 144.293 18.5664C143.965 19.043 143.801 19.7031 143.801 20.5469C143.801 21.3828 143.957 22.043 144.27 22.5273C144.59 23.0039 145.051 23.2422 145.652 23.2422ZM152.016 25C152.016 25 152.016 24.8047 152.016 24.4141C152.016 24.0234 152.016 23.5352 152.016 22.9492C152.016 22.3555 152.016 21.7578 152.016 21.1562C152.016 20.5469 152.016 20.0273 152.016 19.5977C152.016 18.7383 151.965 18.0078 151.863 17.4062C151.77 16.7969 151.676 16.3398 151.582 16.0352H153.996C154.059 16.207 154.125 16.4727 154.195 16.832C154.266 17.1836 154.316 17.4609 154.348 17.6641C154.902 17.0234 155.449 16.5625 155.988 16.2812C156.535 16 157.117 15.8594 157.734 15.8594C158.625 15.8594 159.324 16.168 159.832 16.7852C160.34 17.3945 160.594 18.3047 160.594 19.5156C160.594 19.8047 160.594 20.1797 160.594 20.6406C160.594 21.0938 160.594 21.5703 160.594 22.0703C160.594 22.5703 160.594 23.043 160.594 23.4883C160.594 23.9336 160.594 24.2969 160.594 24.5781C160.594 24.8594 160.594 25 160.594 25H158.133C158.133 25 158.133 24.8125 158.133 24.4375C158.133 24.0547 158.133 23.5898 158.133 23.043C158.133 22.4883 158.133 21.9492 158.133 21.4258C158.133 20.8945 158.133 20.4766 158.133 20.1719C158.133 19.3594 158.023 18.7969 157.805 18.4844C157.586 18.1719 157.238 18.0156 156.762 18.0156C156.262 18.0156 155.793 18.2188 155.355 18.625C154.926 19.0234 154.633 19.4492 154.477 19.9023V25H152.016Z" fill="#3252DF"/>
<path d="M55.8516 25.2109C55.1953 25.2109 54.6133 25.0547 54.1055 24.7422C53.5977 24.4297 53.1953 24.0117 52.8984 23.4883C52.6094 22.957 52.4648 22.3633 52.4648 21.707C52.4648 21.0352 52.6719 20.3945 53.0859 19.7852C53.5 19.168 54.1562 18.4453 55.0547 17.6172C55.8203 16.9141 56.4219 16.3008 56.8594 15.7773C57.2969 15.2539 57.5156 14.8008 57.5156 14.418C57.5156 14.0273 57.375 13.7188 57.0938 13.4922C56.8203 13.2578 56.5078 13.1406 56.1562 13.1406C55.8203 13.1406 55.5 13.2617 55.1953 13.5039C54.8984 13.7383 54.75 14.0547 54.75 14.4531C54.75 14.8203 54.8984 15.2344 55.1953 15.6953C55.5 16.1484 55.8789 16.6523 56.332 17.207C56.7852 17.7539 57.2383 18.3594 57.6914 19.0234C58.8555 20.7109 59.8125 21.9844 60.5625 22.8438C61.3125 23.6953 61.8945 24.2109 62.3086 24.3906C62.1445 24.5312 61.9219 24.7031 61.6406 24.9062C61.3594 25.1094 61.1406 25.2109 60.9844 25.2109C60.7578 25.2109 60.2695 24.7461 59.5195 23.8164C58.7695 22.8867 57.8242 21.6133 56.6836 19.9961C56.1758 19.2773 55.6641 18.6055 55.1484 17.9805C54.6328 17.3477 54.2031 16.75 53.8594 16.1875C53.5156 15.6172 53.3438 15.0703 53.3438 14.5469C53.3438 13.8906 53.4922 13.375 53.7891 13C54.0859 12.625 54.4609 12.3594 54.9141 12.2031C55.3672 12.0391 55.8242 11.957 56.2852 11.957C56.957 11.957 57.5625 12.1758 58.1016 12.6133C58.6484 13.043 58.9219 13.6562 58.9219 14.4531C58.9219 15.0312 58.6523 15.6758 58.1133 16.3867C57.5742 17.0977 56.9062 17.8008 56.1094 18.4961C55.3516 19.168 54.8086 19.7422 54.4805 20.2188C54.1602 20.6953 54 21.1758 54 21.6602C54 22.1602 54.168 22.625 54.5039 23.0547C54.8477 23.4766 55.3398 23.6875 55.9805 23.6875C56.3633 23.6875 56.7891 23.5664 57.2578 23.3242C57.7266 23.082 58.1836 22.7734 58.6289 22.3984C59.082 22.0156 59.4805 21.6133 59.8242 21.1914C60.168 20.7617 60.4102 20.3633 60.5508 19.9961L61.4766 21.1797C61.3047 21.5312 61.0273 21.9375 60.6445 22.3984C60.2695 22.8594 59.8203 23.3047 59.2969 23.7344C58.7812 24.1562 58.2266 24.5078 57.6328 24.7891C57.0469 25.0703 56.4531 25.2109 55.8516 25.2109Z" fill="#FF498B"/>
</svg>
